# xmcd CD database file
#
# Track frame offsets:
#	150
#	19904
#	35027
#	52686
#	68502
#	85162
#	104229
#	125315
#	139726
#	152426
#
# Disc length: 2226 seconds
#
# Revision: 0
# Processed by: cddbd v1.5.1PL0 Copyright (c) Steve Scherf et al.
# Submitted via: CDex 1.51
#
DISCID=7c08b00a
DTITLE=Shane Tecza - Mama Kept Praying
DYEAR=2004
DGENRE=Country
TTITLE0=Without You
TTITLE1=Mama Kept Praying
TTITLE2=Help Me Get Down on My Knees
TTITLE3=John 3:16
TTITLE4=The Moment Jesus Died
TTITLE5=My Great Loss Today
TTITLE6=Plug Into the Power
TTITLE7=Lord Don't Move That Mountain
TTITLE8=Help Me Make it Through My Life
TTITLE9=Going Away Party
EXTD=YEAR: 2004
EXTT0=
EXTT1=
EXTT2=
EXTT3=
EXTT4=
EXTT5=
EXTT6=
EXTT7=
EXTT8=
EXTT9=
PLAYORDER=
